<svg width="270" height="54" viewBox="0 0 270 54" fill="none" xmlns="http://www.w3.org/2000/svg">
<path fill-rule="evenodd" clip-rule="evenodd" d="M92.0126 9.2816V7.20316L86.267 9.33873H86.2561V11.4716H86.267L92.0126 13.6072V11.526L89.0664 10.3997L92.0126 9.27888V9.2816Z" fill="#F7DD43"/>
<path fill-rule="evenodd" clip-rule="evenodd" d="M125.292 13.5037V11.4253L128.236 10.3072L125.292 9.18905V7.1106L131.03 9.24618H131.043V11.3817H131.03L125.292 13.5064V13.5037ZM122.827 4.16977L119.454 15H121.456L124.83 4.16977H122.827Z" fill="#F7DD43"/>
<path fill-rule="evenodd" clip-rule="evenodd" d="M100.454 6.91747C101.026 7.54317 101.325 8.3702 101.29 9.21627V13.8302H99.2873V9.64066C99.3118 9.17274 99.1621 8.7157 98.8683 8.35116C98.5908 8.02742 98.1801 7.84787 97.7529 7.86691C96.4988 7.86691 95.8704 8.73746 95.8704 10.4758V13.8302H93.8681V6.25639H95.8704V6.93923C96.507 6.32168 97.3694 5.99251 98.2562 6.03059C99.0833 5.99523 99.8831 6.31896 100.454 6.91747Z" fill="#F7DD43"/>
<path fill-rule="evenodd" clip-rule="evenodd" d="M103.841 3V13.8302H105.844V3H103.841Z" fill="#F7DD43"/>
<path fill-rule="evenodd" clip-rule="evenodd" d="M117.166 13.8302H115.496L113.858 9.36862L112.204 13.8302H110.534L107.726 6.2428H109.867L111.445 10.7806L113.072 6.2428H114.636L116.263 10.7942L117.841 6.2428H119.982L117.172 13.8302H117.166Z" fill="#F7DD43"/>
<path d="M140.58 17.9981C138.653 17.9981 136.629 17.6331 135.043 16.754V1.24411C136.605 0.389878 138.628 2.85548e-05 140.58 2.85548e-05C142.531 2.85548e-05 144.507 0.365035 146.066 1.24411V7.19505H142.139V3.14558C141.676 2.95066 141.115 2.87804 140.555 2.87804C139.995 2.87804 139.481 2.95066 138.993 3.14558V14.8525C139.456 15.0475 139.993 15.1201 140.555 15.1201C141.117 15.1201 141.652 15.0475 142.139 14.8525V10.805H146.066V16.7559C144.53 17.6101 142.506 17.9752 140.58 18V17.9981Z" fill="#F7DD43"/>
<path d="M153.431 17.9981C151.358 17.9981 149.359 17.5585 147.773 16.6565V1.3167C149.334 0.439536 151.335 0 153.431 0C155.528 0 157.479 0.414693 159.04 1.3167V16.6565C157.504 17.5585 155.48 17.9732 153.431 17.9981ZM155.115 3.19524C154.652 3.00031 154.091 2.90285 153.408 2.90285C152.726 2.90285 152.189 3.00031 151.725 3.19524V14.7799C152.187 14.9997 152.749 15.0971 153.408 15.0971C154.068 15.0971 154.628 14.9997 155.115 14.7799V3.19524Z" fill="#F7DD43"/>
<path d="M165.893 11.4127H164.844V17.7783H160.869V0.219779H165.893C168.284 0.219779 170.088 0.707092 171.502 1.70656V9.92589C170.113 10.9024 168.282 11.4127 165.893 11.4127ZM167.552 3.24303C167.187 2.97548 166.698 2.85318 165.868 2.85318H164.794V8.77927H165.868C166.673 8.77927 167.16 8.65697 167.552 8.41427V3.24303Z" fill="#F7DD43"/>
<path d="M179.817 17.7783V11.4127H176.891V17.7783H172.941V1.29185C174.38 0.437626 176.404 0 178.355 0C180.306 0 182.305 0.439537 183.744 1.29185V17.7783H179.817ZM179.817 3.04809C179.402 2.85316 178.89 2.7557 178.353 2.7557C177.816 2.7557 177.304 2.85316 176.889 3.04809V8.63211H179.815V3.04809H179.817Z" fill="#F7DD43"/>
<path d="M58.2129 45.9658H62.5928C62.5049 47.4014 62.1094 48.6758 61.4062 49.7891C60.7129 50.9023 59.7412 51.7715 58.4912 52.3965C57.251 53.0215 55.7568 53.334 54.0088 53.334C52.6416 53.334 51.416 53.0996 50.332 52.6309C49.248 52.1523 48.3203 51.4688 47.5488 50.5801C46.7871 49.6914 46.2061 48.6172 45.8057 47.3574C45.4053 46.0977 45.2051 44.6865 45.2051 43.124V41.6445C45.2051 40.082 45.4102 38.6709 45.8203 37.4111C46.2402 36.1416 46.8359 35.0625 47.6074 34.1738C48.3887 33.2852 49.3213 32.6016 50.4053 32.123C51.4893 31.6445 52.7002 31.4053 54.0381 31.4053C55.8154 31.4053 57.3145 31.7275 58.5352 32.3721C59.7656 33.0166 60.7178 33.9053 61.3916 35.0381C62.0752 36.1709 62.4854 37.46 62.6221 38.9053H58.2275C58.1787 38.0459 58.0078 37.3184 57.7148 36.7227C57.4219 36.1172 56.9775 35.6631 56.3818 35.3604C55.7959 35.0479 55.0146 34.8916 54.0381 34.8916C53.3057 34.8916 52.666 35.0283 52.1191 35.3018C51.5723 35.5752 51.1133 35.9902 50.7422 36.5469C50.3711 37.1035 50.0928 37.8066 49.9072 38.6562C49.7314 39.4961 49.6436 40.4824 49.6436 41.6152V43.124C49.6436 44.2275 49.7266 45.1992 49.8926 46.0391C50.0586 46.8691 50.3125 47.5723 50.6543 48.1484C51.0059 48.7148 51.4551 49.1445 52.002 49.4375C52.5586 49.7207 53.2275 49.8623 54.0088 49.8623C54.9268 49.8623 55.6836 49.7158 56.2793 49.4229C56.875 49.1299 57.3291 48.6953 57.6416 48.1191C57.9639 47.543 58.1543 46.8252 58.2129 45.9658Z" fill="url(#paint0_linear_122_239)"/>
<path d="M74.1504 35.3604L68.3496 53.041H63.6768L71.6016 31.7129H74.5752L74.1504 35.3604ZM78.9697 53.041L73.1543 35.3604L72.6855 31.7129H75.6885L83.6572 53.041H78.9697ZM78.7061 45.1016V48.5439H67.4414V45.1016H78.7061Z" fill="url(#paint1_linear_122_239)"/>
<path d="M99.3457 49.6133V53.041H88.6084V49.6133H99.3457ZM90.0293 31.7129V53.041H85.6348V31.7129H90.0293Z" fill="url(#paint2_linear_122_239)"/>
<path d="M116.177 49.6133V53.041H104.824V49.6133H116.177ZM106.26 31.7129V53.041H101.865V31.7129H106.26ZM114.697 40.3994V43.7393H104.824V40.3994H114.697ZM116.162 31.7129V35.1553H104.824V31.7129H116.162Z" fill="url(#paint3_linear_122_239)"/>
<path d="M136.099 31.7129V53.041H131.704L123.135 38.7441V53.041H118.74V31.7129H123.135L131.719 46.0244V31.7129H136.099Z" fill="url(#paint4_linear_122_239)"/>
<path d="M146.47 53.041H141.826L141.855 49.6133H146.47C147.622 49.6133 148.594 49.3545 149.385 48.8369C150.176 48.3096 150.771 47.543 151.172 46.5371C151.582 45.5312 151.787 44.3154 151.787 42.8896V41.8496C151.787 40.7559 151.67 39.7939 151.436 38.9639C151.211 38.1338 150.874 37.4355 150.425 36.8691C149.976 36.3027 149.424 35.8779 148.77 35.5947C148.115 35.3018 147.363 35.1553 146.514 35.1553H141.738V31.7129H146.514C147.939 31.7129 149.243 31.957 150.425 32.4453C151.616 32.9238 152.646 33.6123 153.516 34.5107C154.385 35.4092 155.054 36.4834 155.522 37.7334C156.001 38.9736 156.24 40.3555 156.24 41.8789V42.8896C156.24 44.4033 156.001 45.7852 155.522 47.0352C155.054 48.2852 154.385 49.3594 153.516 50.2578C152.656 51.1465 151.626 51.835 150.425 52.3232C149.233 52.8018 147.915 53.041 146.47 53.041ZM144.316 31.7129V53.041H139.922V31.7129H144.316Z" fill="url(#paint5_linear_122_239)"/>
<path d="M167.783 35.3604L161.982 53.041H157.31L165.234 31.7129H168.208L167.783 35.3604ZM172.603 53.041L166.787 35.3604L166.318 31.7129H169.321L177.29 53.041H172.603ZM172.339 45.1016V48.5439H161.074V45.1016H172.339ZM165.308 30.5117L168.179 26H172.764L168.735 30.5117H165.308Z" fill="url(#paint6_linear_122_239)"/>
<path d="M179.268 31.7129H187.222C188.853 31.7129 190.254 31.957 191.426 32.4453C192.607 32.9336 193.516 33.6562 194.15 34.6133C194.785 35.5703 195.103 36.7471 195.103 38.1436C195.103 39.2861 194.907 40.2676 194.517 41.0879C194.136 41.8984 193.594 42.5771 192.891 43.124C192.197 43.6611 191.382 44.0908 190.444 44.4131L189.053 45.1455H182.139L182.109 41.7178H187.251C188.022 41.7178 188.662 41.5811 189.17 41.3076C189.678 41.0342 190.059 40.6533 190.312 40.165C190.576 39.6768 190.708 39.1104 190.708 38.4658C190.708 37.7822 190.581 37.1914 190.327 36.6934C190.073 36.1953 189.688 35.8145 189.17 35.5508C188.652 35.2871 188.003 35.1553 187.222 35.1553H183.662V53.041H179.268V31.7129ZM191.191 53.041L186.328 43.5342L190.972 43.5049L195.894 52.8359V53.041H191.191Z" fill="url(#paint7_linear_122_239)"/>
<path d="M203.159 31.7129V53.041H198.779V31.7129H203.159Z" fill="url(#paint8_linear_122_239)"/>
<path d="M224.795 41.8789V42.8896C224.795 44.5107 224.575 45.9658 224.136 47.2549C223.696 48.5439 223.076 49.6426 222.275 50.5508C221.475 51.4492 220.518 52.1377 219.404 52.6162C218.301 53.0947 217.075 53.334 215.728 53.334C214.39 53.334 213.164 53.0947 212.051 52.6162C210.947 52.1377 209.99 51.4492 209.18 50.5508C208.369 49.6426 207.739 48.5439 207.29 47.2549C206.851 45.9658 206.631 44.5107 206.631 42.8896V41.8789C206.631 40.248 206.851 38.793 207.29 37.5137C207.729 36.2246 208.35 35.126 209.15 34.2178C209.961 33.3096 210.918 32.6162 212.021 32.1377C213.135 31.6592 214.36 31.4199 215.698 31.4199C217.046 31.4199 218.271 31.6592 219.375 32.1377C220.488 32.6162 221.445 33.3096 222.246 34.2178C223.057 35.126 223.682 36.2246 224.121 37.5137C224.57 38.793 224.795 40.248 224.795 41.8789ZM220.356 42.8896V41.8496C220.356 40.7168 220.254 39.7207 220.049 38.8613C219.844 38.002 219.541 37.2793 219.141 36.6934C218.74 36.1074 218.252 35.668 217.676 35.375C217.1 35.0723 216.44 34.9209 215.698 34.9209C214.956 34.9209 214.297 35.0723 213.721 35.375C213.154 35.668 212.671 36.1074 212.271 36.6934C211.88 37.2793 211.582 38.002 211.377 38.8613C211.172 39.7207 211.069 40.7168 211.069 41.8496V42.8896C211.069 44.0127 211.172 45.0088 211.377 45.8779C211.582 46.7373 211.885 47.4648 212.285 48.0605C212.686 48.6465 213.174 49.0908 213.75 49.3936C214.326 49.6963 214.985 49.8477 215.728 49.8477C216.47 49.8477 217.129 49.6963 217.705 49.3936C218.281 49.0908 218.765 48.6465 219.155 48.0605C219.546 47.4648 219.844 46.7373 220.049 45.8779C220.254 45.0088 220.356 44.0127 220.356 42.8896Z" fill="url(#paint9_linear_122_239)"/>
<defs>
<linearGradient id="paint0_linear_122_239" x1="135" y1="24.041" x2="135" y2="62.041" gradientUnits="userSpaceOnUse">
<stop stop-color="white"/>
<stop offset="1" stop-color="#D9D9D9" stop-opacity="0.8"/>
</linearGradient>
<linearGradient id="paint1_linear_122_239" x1="135" y1="24.041" x2="135" y2="62.041" gradientUnits="userSpaceOnUse">
<stop stop-color="white"/>
<stop offset="1" stop-color="#D9D9D9" stop-opacity="0.8"/>
</linearGradient>
<linearGradient id="paint2_linear_122_239" x1="135" y1="24.041" x2="135" y2="62.041" gradientUnits="userSpaceOnUse">
<stop stop-color="white"/>
<stop offset="1" stop-color="#D9D9D9" stop-opacity="0.8"/>
</linearGradient>
<linearGradient id="paint3_linear_122_239" x1="135" y1="24.041" x2="135" y2="62.041" gradientUnits="userSpaceOnUse">
<stop stop-color="white"/>
<stop offset="1" stop-color="#D9D9D9" stop-opacity="0.8"/>
</linearGradient>
<linearGradient id="paint4_linear_122_239" x1="135" y1="24.041" x2="135" y2="62.041" gradientUnits="userSpaceOnUse">
<stop stop-color="white"/>
<stop offset="1" stop-color="#D9D9D9" stop-opacity="0.8"/>
</linearGradient>
<linearGradient id="paint5_linear_122_239" x1="135" y1="24.041" x2="135" y2="62.041" gradientUnits="userSpaceOnUse">
<stop stop-color="white"/>
<stop offset="1" stop-color="#D9D9D9" stop-opacity="0.8"/>
</linearGradient>
<linearGradient id="paint6_linear_122_239" x1="135" y1="24.041" x2="135" y2="62.041" gradientUnits="userSpaceOnUse">
<stop stop-color="white"/>
<stop offset="1" stop-color="#D9D9D9" stop-opacity="0.8"/>
</linearGradient>
<linearGradient id="paint7_linear_122_239" x1="135" y1="24.041" x2="135" y2="62.041" gradientUnits="userSpaceOnUse">
<stop stop-color="white"/>
<stop offset="1" stop-color="#D9D9D9" stop-opacity="0.8"/>
</linearGradient>
<linearGradient id="paint8_linear_122_239" x1="135" y1="24.041" x2="135" y2="62.041" gradientUnits="userSpaceOnUse">
<stop stop-color="white"/>
<stop offset="1" stop-color="#D9D9D9" stop-opacity="0.8"/>
</linearGradient>
<linearGradient id="paint9_linear_122_239" x1="135" y1="24.041" x2="135" y2="62.041" gradientUnits="userSpaceOnUse">
<stop stop-color="white"/>
<stop offset="1" stop-color="#D9D9D9" stop-opacity="0.8"/>
</linearGradient>
</defs>
</svg>
